<svg xmlns="http://www.w3.org/2000/svg" viewBox="0 0 256 256">
  <rect width="256" height="256" fill="#00ADD8"/>
  <g fill="white">
    <circle cx="76" cy="100" r="12"/>
    <circle cx="124" cy="100" r="12"/>
    <path d="M200 132c-10-2-23-1-31 6-11 9-18 28-25 35-10 9-20 14-32 18-10 3-20 5-30 6h-9l3-6c8-14 13-30 18-45 3-10 6-20 6-30 0-8-1-16-5-24-4-9-10-17-19-21-10-5-23-6-33-1-5 2-9 6-12 10-5 6-9 14-10 22-1 6 0 13 3 19 2 4 6 9 10 10 3 1 6 1 9-1 4-2 7-6 10-9 3-3 5-6 7-10 1-2 2-4 1-6 0-2-1-3-3-3-2-1-4 0-6 1-5 3-8 10-12 14-3 3-7 5-11 5-5 0-9-3-11-7-2-4-2-9-1-14 1-7 4-14 8-19 4-6 9-10 16-12 8-2 16-2 24 1 6 2 12 6 17 11 8 8 13 20 14 31 1 9 0 18-2 27-2 10-5 20-9 30-4 11-9 21-15 31h22c12-1 24-3 35-7 13-4 25-12 34-23 7-9 12-19 17-29 1-3 2-6 4-9 3-4 8-6 13-6l1-7c-2 0-4 0-6-1zm-58-27c0 6-4 10-10 10s-10-4-10-10 4-10 10-10 10 4 10 10zm-48 0c0 6-4 10-10 10s-10-4-10-10 4-10 10-10 10 4 10 10z"/>
  </g>
</svg>
